<svg width="383" height="412" viewBox="0 0 383 412" fill="none" xmlns="http://www.w3.org/2000/svg">
<rect width="382.71" height="411.414" rx="37.2079" fill="#40666A"/>
<path d="M185.508 122.847V111.791H207.62V189.29H195.395V122.847H185.508ZM224.056 130.926C224.482 124.335 226.998 119.197 231.604 115.512C236.282 111.826 242.235 109.984 249.464 109.984C254.425 109.984 258.713 110.87 262.327 112.641C265.942 114.413 268.671 116.823 270.513 119.87C272.356 122.918 273.277 126.355 273.277 130.182C273.277 134.576 272.108 138.333 269.769 141.451C267.43 144.569 264.631 146.66 261.371 147.723V148.148C265.552 149.424 268.812 151.763 271.151 155.165C273.49 158.496 274.659 162.784 274.659 168.028C274.659 172.21 273.702 175.93 271.789 179.19C269.875 182.451 267.04 185.037 263.284 186.951C259.528 188.794 255.028 189.715 249.783 189.715C242.129 189.715 235.821 187.766 230.86 183.868C225.97 179.899 223.348 174.229 222.993 166.859H234.687C234.971 170.615 236.424 173.698 239.046 176.108C241.668 178.446 245.212 179.616 249.677 179.616C254 179.616 257.331 178.446 259.67 176.108C262.009 173.698 263.178 170.615 263.178 166.859C263.178 161.898 261.583 158.389 258.394 156.334C255.276 154.208 250.456 153.145 243.936 153.145H241.172V143.152H244.042C249.783 143.081 254.142 142.124 257.118 140.282C260.166 138.439 261.69 135.533 261.69 131.564C261.69 128.162 260.591 125.469 258.394 123.485C256.197 121.43 253.079 120.402 249.039 120.402C245.07 120.402 241.987 121.43 239.79 123.485C237.593 125.469 236.282 127.95 235.857 130.926H224.056Z" fill="#C9E8E0"/>
<path d="M308.294 104.693C308.294 102.507 309.079 100.635 310.649 99.0773C312.219 97.5196 314.105 96.7407 316.309 96.7407C318.484 96.7407 320.35 97.5196 321.906 99.0773C323.462 100.635 324.24 102.507 324.24 104.693C324.24 106.88 323.462 108.758 321.906 110.33C320.35 111.901 318.484 112.687 316.309 112.687C314.133 112.687 312.253 111.901 310.67 110.33C309.086 108.758 308.294 106.88 308.294 104.693ZM312.177 104.693C312.177 105.841 312.577 106.811 313.376 107.604C314.202 108.424 315.179 108.834 316.309 108.834C317.438 108.834 318.416 108.424 319.242 107.604C320.068 106.784 320.481 105.814 320.481 104.693C320.481 103.573 320.068 102.61 319.242 101.803C318.416 100.997 317.438 100.594 316.309 100.594C315.152 100.594 314.174 100.99 313.376 101.783C312.577 102.575 312.177 103.546 312.177 104.693Z" fill="#C9E8E0"/>
<path d="M149.73 324.886C150.751 324.003 151.553 323.28 152.138 322.717C152.733 322.143 153.227 321.548 153.621 320.931C154.014 320.314 154.211 319.698 154.211 319.081C154.211 318.443 154.057 317.944 153.748 317.582C153.451 317.221 152.978 317.04 152.329 317.04C151.702 317.04 151.213 317.242 150.862 317.646C150.522 318.039 150.341 318.571 150.32 319.241H148.566C148.598 318.029 148.959 317.104 149.65 316.466C150.352 315.818 151.24 315.493 152.313 315.493C153.472 315.493 154.376 315.812 155.024 316.45C155.683 317.088 156.013 317.938 156.013 319.002C156.013 319.767 155.816 320.506 155.423 321.218C155.04 321.92 154.578 322.552 154.035 323.116C153.504 323.669 152.824 324.312 151.994 325.045L151.277 325.683H156.332V327.198H148.582V325.874L149.73 324.886ZM157.689 317.391V315.733H161.006V327.357H159.172V317.391H157.689ZM172.94 327.469C171.909 327.469 170.957 327.23 170.086 326.751C169.225 326.262 168.539 325.587 168.029 324.726C167.529 323.855 167.279 322.877 167.279 321.792C167.279 320.708 167.529 319.735 168.029 318.874C168.539 318.013 169.225 317.343 170.086 316.865C170.957 316.376 171.909 316.131 172.94 316.131C173.982 316.131 174.933 316.376 175.794 316.865C176.666 317.343 177.352 318.013 177.852 318.874C178.351 319.735 178.601 320.708 178.601 321.792C178.601 322.877 178.351 323.855 177.852 324.726C177.352 325.587 176.666 326.262 175.794 326.751C174.933 327.23 173.982 327.469 172.94 327.469ZM172.94 325.89C173.674 325.89 174.327 325.726 174.901 325.396C175.476 325.056 175.922 324.577 176.241 323.961C176.571 323.334 176.735 322.611 176.735 321.792C176.735 320.974 176.571 320.256 176.241 319.639C175.922 319.023 175.476 318.55 174.901 318.22C174.327 317.891 173.674 317.726 172.94 317.726C172.207 317.726 171.553 317.891 170.979 318.22C170.405 318.55 169.953 319.023 169.623 319.639C169.304 320.256 169.145 320.974 169.145 321.792C169.145 322.611 169.304 323.334 169.623 323.961C169.953 324.577 170.405 325.056 170.979 325.396C171.553 325.726 172.207 325.89 172.94 325.89ZM179.784 322.956C179.784 322.053 179.965 321.261 180.326 320.58C180.698 319.889 181.208 319.358 181.857 318.986C182.505 318.614 183.25 318.428 184.089 318.428C185.152 318.428 186.03 318.683 186.721 319.193C187.422 319.693 187.895 320.41 188.14 321.346H186.178C186.019 320.91 185.764 320.57 185.413 320.325C185.062 320.081 184.621 319.958 184.089 319.958C183.345 319.958 182.75 320.224 182.303 320.756C181.868 321.277 181.65 322.01 181.65 322.956C181.65 323.902 181.868 324.641 182.303 325.173C182.75 325.704 183.345 325.97 184.089 325.97C185.142 325.97 185.838 325.508 186.178 324.583H188.14C187.885 325.476 187.406 326.188 186.705 326.72C186.003 327.24 185.131 327.501 184.089 327.501C183.25 327.501 182.505 327.315 181.857 326.943C181.208 326.56 180.698 326.029 180.326 325.348C179.965 324.657 179.784 323.86 179.784 322.956ZM192.072 320.054V324.918C192.072 325.247 192.147 325.486 192.296 325.635C192.455 325.773 192.721 325.843 193.093 325.843H194.209V327.357H192.774C191.955 327.357 191.328 327.166 190.892 326.783C190.456 326.401 190.238 325.779 190.238 324.918V320.054H189.202V318.571H190.238V316.386H192.072V318.571H194.209V320.054H192.072ZM200.792 324.886C201.813 324.003 202.615 323.28 203.2 322.717C203.795 322.143 204.29 321.548 204.683 320.931C205.076 320.314 205.273 319.698 205.273 319.081C205.273 318.443 205.119 317.944 204.811 317.582C204.513 317.221 204.04 317.04 203.391 317.04C202.764 317.04 202.275 317.242 201.924 317.646C201.584 318.039 201.404 318.571 201.382 319.241H199.628C199.66 318.029 200.022 317.104 200.713 316.466C201.414 315.818 202.302 315.493 203.376 315.493C204.534 315.493 205.438 315.812 206.086 316.45C206.746 317.088 207.075 317.938 207.075 319.002C207.075 319.767 206.878 320.506 206.485 321.218C206.102 321.92 205.64 322.552 205.098 323.116C204.566 323.669 203.886 324.312 203.057 325.045L202.339 325.683H207.394V327.198H199.644V325.874L200.792 324.886ZM208.991 321.394C208.991 319.554 209.299 318.119 209.916 317.088C210.543 316.046 211.617 315.525 213.137 315.525C214.657 315.525 215.726 316.046 216.342 317.088C216.969 318.119 217.283 319.554 217.283 321.394C217.283 323.254 216.969 324.71 216.342 325.763C215.726 326.805 214.657 327.326 213.137 327.326C211.617 327.326 210.543 326.805 209.916 325.763C209.299 324.71 208.991 323.254 208.991 321.394ZM215.497 321.394C215.497 320.532 215.439 319.804 215.322 319.209C215.215 318.614 214.992 318.13 214.652 317.758C214.312 317.375 213.807 317.184 213.137 317.184C212.467 317.184 211.962 317.375 211.622 317.758C211.282 318.13 211.053 318.614 210.936 319.209C210.83 319.804 210.777 320.532 210.777 321.394C210.777 322.287 210.83 323.036 210.936 323.642C211.043 324.248 211.266 324.737 211.606 325.109C211.957 325.481 212.467 325.667 213.137 325.667C213.807 325.667 214.312 325.481 214.652 325.109C215.003 324.737 215.231 324.248 215.338 323.642C215.444 323.036 215.497 322.287 215.497 321.394ZM218.967 317.391V315.733H222.284V327.357H220.45V317.391H218.967ZM227.046 324.2C227.152 324.732 227.381 325.136 227.732 325.412C228.082 325.688 228.555 325.827 229.151 325.827C229.906 325.827 230.458 325.529 230.809 324.934C231.16 324.338 231.335 323.323 231.335 321.888C231.08 322.249 230.719 322.531 230.251 322.733C229.794 322.924 229.294 323.02 228.752 323.02C228.061 323.02 227.434 322.882 226.87 322.605C226.307 322.318 225.861 321.898 225.531 321.346C225.212 320.782 225.053 320.102 225.053 319.305C225.053 318.135 225.393 317.205 226.073 316.514C226.764 315.812 227.71 315.462 228.912 315.462C230.357 315.462 231.383 315.945 231.989 316.913C232.606 317.869 232.914 319.342 232.914 321.33C232.914 322.701 232.797 323.823 232.563 324.694C232.34 325.566 231.947 326.225 231.383 326.672C230.82 327.118 230.038 327.341 229.039 327.341C227.902 327.341 227.025 327.044 226.408 326.448C225.791 325.853 225.446 325.104 225.372 324.2H227.046ZM229.071 321.489C229.709 321.489 230.209 321.293 230.57 320.899C230.942 320.495 231.128 319.964 231.128 319.305C231.128 318.571 230.931 318.002 230.538 317.598C230.155 317.184 229.629 316.976 228.959 316.976C228.29 316.976 227.758 317.189 227.365 317.614C226.982 318.029 226.791 318.576 226.791 319.257C226.791 319.905 226.977 320.442 227.349 320.867C227.732 321.282 228.306 321.489 229.071 321.489Z" fill="#C9E8E0"/>
<path d="M94.8907 356.672V358.155H90.1866V361.424H93.8542V362.907H90.1866V367.755H88.3687V356.672H94.8907ZM104.628 363.146C104.628 363.476 104.607 363.773 104.564 364.039H97.8511C97.9043 364.741 98.1647 365.304 98.6325 365.729C99.1002 366.155 99.6743 366.367 100.355 366.367C101.333 366.367 102.024 365.958 102.428 365.139H104.389C104.123 365.947 103.64 366.612 102.938 367.133C102.247 367.643 101.386 367.898 100.355 367.898C99.5148 367.898 98.7601 367.712 98.0903 367.34C97.4312 366.957 96.9103 366.426 96.5276 365.745C96.1555 365.054 95.9695 364.257 95.9695 363.353C95.9695 362.45 96.1502 361.658 96.5116 360.977C96.8837 360.286 97.3993 359.755 98.0584 359.383C98.7282 359.011 99.4936 358.825 100.355 358.825C101.184 358.825 101.923 359.005 102.571 359.367C103.22 359.728 103.725 360.239 104.086 360.898C104.448 361.546 104.628 362.296 104.628 363.146ZM102.731 362.572C102.72 361.902 102.481 361.366 102.013 360.962C101.545 360.558 100.966 360.356 100.275 360.356C99.6477 360.356 99.1109 360.558 98.6644 360.962C98.2179 361.355 97.9521 361.892 97.8671 362.572H102.731ZM114.47 363.146C114.47 363.476 114.449 363.773 114.406 364.039H107.693C107.746 364.741 108.007 365.304 108.474 365.729C108.942 366.155 109.516 366.367 110.197 366.367C111.175 366.367 111.866 365.958 112.27 365.139H114.231C113.965 365.947 113.481 366.612 112.78 367.133C112.089 367.643 111.228 367.898 110.197 367.898C109.357 367.898 108.602 367.712 107.932 367.34C107.273 366.957 106.752 366.426 106.369 365.745C105.997 365.054 105.811 364.257 105.811 363.353C105.811 362.45 105.992 361.658 106.353 360.977C106.726 360.286 107.241 359.755 107.9 359.383C108.57 359.011 109.335 358.825 110.197 358.825C111.026 358.825 111.765 359.005 112.413 359.367C113.062 359.728 113.566 360.239 113.928 360.898C114.289 361.546 114.47 362.296 114.47 363.146ZM112.573 362.572C112.562 361.902 112.323 361.366 111.855 360.962C111.387 360.558 110.808 360.356 110.117 360.356C109.49 360.356 108.953 360.558 108.506 360.962C108.06 361.355 107.794 361.892 107.709 362.572H112.573ZM118.077 355.954V367.755H116.259V355.954H118.077ZM123.653 367.898C122.962 367.898 122.34 367.776 121.787 367.531C121.245 367.276 120.814 366.936 120.496 366.511C120.177 366.075 120.007 365.591 119.985 365.06H121.867C121.899 365.432 122.074 365.745 122.393 366.001C122.723 366.245 123.132 366.367 123.621 366.367C124.131 366.367 124.525 366.272 124.801 366.08C125.088 365.878 125.232 365.623 125.232 365.315C125.232 364.985 125.072 364.741 124.753 364.581C124.445 364.422 123.951 364.246 123.27 364.055C122.611 363.874 122.074 363.699 121.66 363.529C121.245 363.359 120.884 363.098 120.575 362.748C120.278 362.397 120.129 361.934 120.129 361.36C120.129 360.892 120.267 360.467 120.543 360.084C120.82 359.691 121.213 359.383 121.723 359.16C122.244 358.936 122.84 358.825 123.509 358.825C124.509 358.825 125.311 359.08 125.917 359.59C126.534 360.09 126.863 360.775 126.906 361.647H125.088C125.056 361.254 124.897 360.94 124.61 360.706C124.323 360.473 123.935 360.356 123.446 360.356C122.967 360.356 122.6 360.446 122.345 360.627C122.09 360.807 121.963 361.047 121.963 361.344C121.963 361.578 122.048 361.775 122.218 361.934C122.388 362.094 122.595 362.221 122.84 362.317C123.084 362.402 123.446 362.514 123.924 362.652C124.562 362.822 125.083 362.997 125.487 363.178C125.901 363.348 126.257 363.603 126.555 363.943C126.853 364.284 127.007 364.735 127.018 365.299C127.018 365.799 126.879 366.245 126.603 366.638C126.327 367.032 125.933 367.34 125.423 367.563C124.923 367.787 124.333 367.898 123.653 367.898ZM134.942 355.954V367.755H133.124V355.954H134.942ZM138.254 357.804C137.924 357.804 137.648 357.693 137.424 357.469C137.201 357.246 137.09 356.97 137.09 356.64C137.09 356.311 137.201 356.034 137.424 355.811C137.648 355.588 137.924 355.476 138.254 355.476C138.573 355.476 138.844 355.588 139.067 355.811C139.29 356.034 139.402 356.311 139.402 356.64C139.402 356.97 139.29 357.246 139.067 357.469C138.844 357.693 138.573 357.804 138.254 357.804ZM139.147 358.968V367.755H137.329V358.968H139.147ZM145.01 363.369L149.06 367.755H146.604L143.351 363.975V367.755H141.533V355.954H143.351V362.811L146.54 358.968H149.06L145.01 363.369ZM158.416 363.146C158.416 363.476 158.395 363.773 158.352 364.039H151.639C151.692 364.741 151.952 365.304 152.42 365.729C152.888 366.155 153.462 366.367 154.142 366.367C155.12 366.367 155.811 365.958 156.215 365.139H158.177C157.911 365.947 157.427 366.612 156.725 367.133C156.034 367.643 155.173 367.898 154.142 367.898C153.302 367.898 152.548 367.712 151.878 367.34C151.219 366.957 150.698 366.426 150.315 365.745C149.943 365.054 149.757 364.257 149.757 363.353C149.757 362.45 149.938 361.658 150.299 360.977C150.671 360.286 151.187 359.755 151.846 359.383C152.516 359.011 153.281 358.825 154.142 358.825C154.971 358.825 155.71 359.005 156.359 359.367C157.007 359.728 157.512 360.239 157.874 360.898C158.235 361.546 158.416 362.296 158.416 363.146ZM156.518 362.572C156.508 361.902 156.268 361.366 155.801 360.962C155.333 360.558 154.753 360.356 154.062 360.356C153.435 360.356 152.898 360.558 152.452 360.962C152.005 361.355 151.74 361.892 151.655 362.572H156.518ZM166.069 361.679C164.964 361.126 164.411 360.255 164.411 359.064C164.411 358.49 164.554 357.964 164.841 357.485C165.128 357.007 165.559 356.629 166.133 356.353C166.707 356.066 167.409 355.923 168.238 355.923C169.056 355.923 169.753 356.066 170.327 356.353C170.912 356.629 171.347 357.007 171.634 357.485C171.922 357.964 172.065 358.49 172.065 359.064C172.065 359.659 171.911 360.185 171.603 360.643C171.305 361.089 170.906 361.435 170.407 361.679C171.013 361.902 171.491 362.269 171.842 362.779C172.193 363.279 172.368 363.869 172.368 364.549C172.368 365.24 172.193 365.852 171.842 366.383C171.491 366.915 171.002 367.324 170.375 367.611C169.747 367.898 169.035 368.042 168.238 368.042C167.441 368.042 166.728 367.898 166.101 367.611C165.485 367.324 165.001 366.915 164.65 366.383C164.299 365.852 164.124 365.24 164.124 364.549C164.124 363.858 164.299 363.263 164.65 362.763C165.001 362.264 165.474 361.902 166.069 361.679ZM170.327 359.287C170.327 358.692 170.141 358.235 169.769 357.916C169.397 357.597 168.886 357.437 168.238 357.437C167.6 357.437 167.095 357.597 166.723 357.916C166.351 358.235 166.165 358.697 166.165 359.303C166.165 359.835 166.356 360.271 166.739 360.611C167.132 360.94 167.632 361.105 168.238 361.105C168.844 361.105 169.344 360.935 169.737 360.595C170.13 360.255 170.327 359.819 170.327 359.287ZM168.238 362.476C167.536 362.476 166.962 362.652 166.516 363.003C166.08 363.343 165.862 363.837 165.862 364.486C165.862 365.092 166.075 365.586 166.5 365.969C166.925 366.341 167.504 366.527 168.238 366.527C168.961 366.527 169.53 366.335 169.944 365.953C170.369 365.57 170.582 365.081 170.582 364.486C170.582 363.848 170.364 363.353 169.928 363.003C169.503 362.652 168.94 362.476 168.238 362.476Z" fill="#C9E8E0"/>
<path d="M201.518 367.866C200.774 367.866 200.104 367.739 199.509 367.484C198.914 367.218 198.446 366.846 198.106 366.367C197.765 365.889 197.595 365.331 197.595 364.693H199.541C199.583 365.171 199.769 365.565 200.099 365.873C200.439 366.181 200.912 366.335 201.518 366.335C202.145 366.335 202.634 366.187 202.985 365.889C203.336 365.581 203.511 365.187 203.511 364.709C203.511 364.337 203.4 364.034 203.176 363.8C202.964 363.566 202.693 363.385 202.363 363.258C202.044 363.13 201.598 362.992 201.024 362.843C200.301 362.652 199.711 362.46 199.254 362.269C198.807 362.067 198.424 361.759 198.106 361.344C197.787 360.93 197.627 360.377 197.627 359.686C197.627 359.048 197.787 358.49 198.106 358.011C198.424 357.533 198.871 357.166 199.445 356.911C200.019 356.656 200.684 356.528 201.438 356.528C202.512 356.528 203.389 356.8 204.069 357.342C204.76 357.873 205.143 358.607 205.218 359.542H203.208C203.176 359.138 202.985 358.793 202.634 358.506C202.283 358.219 201.821 358.075 201.247 358.075C200.726 358.075 200.301 358.208 199.971 358.474C199.642 358.74 199.477 359.122 199.477 359.622C199.477 359.962 199.578 360.244 199.78 360.467C199.993 360.68 200.258 360.85 200.577 360.977C200.896 361.105 201.332 361.243 201.885 361.392C202.618 361.594 203.214 361.796 203.671 361.998C204.139 362.2 204.532 362.514 204.851 362.939C205.18 363.353 205.345 363.912 205.345 364.613C205.345 365.177 205.191 365.708 204.883 366.208C204.585 366.708 204.144 367.111 203.559 367.42C202.985 367.717 202.305 367.866 201.518 367.866ZM215.447 358.968V367.755H213.63V366.718C213.342 367.08 212.965 367.367 212.497 367.579C212.04 367.781 211.551 367.882 211.03 367.882C210.339 367.882 209.717 367.739 209.165 367.452C208.622 367.165 208.192 366.739 207.873 366.176C207.565 365.613 207.41 364.932 207.41 364.135V358.968H209.212V363.864C209.212 364.65 209.409 365.256 209.802 365.682C210.196 366.096 210.733 366.304 211.413 366.304C212.093 366.304 212.63 366.096 213.024 365.682C213.428 365.256 213.63 364.65 213.63 363.864V358.968H215.447ZM222.279 358.825C222.97 358.825 223.587 358.968 224.129 359.255C224.682 359.542 225.112 359.968 225.42 360.531C225.729 361.094 225.883 361.775 225.883 362.572V367.755H224.081V362.843C224.081 362.057 223.884 361.456 223.491 361.041C223.098 360.616 222.561 360.403 221.88 360.403C221.2 360.403 220.658 360.616 220.254 361.041C219.86 361.456 219.664 362.057 219.664 362.843V367.755H217.846V358.968H219.664V359.973C219.961 359.611 220.339 359.33 220.796 359.128C221.264 358.926 221.758 358.825 222.279 358.825ZM231.391 367.898C230.7 367.898 230.078 367.776 229.525 367.531C228.983 367.276 228.552 366.936 228.234 366.511C227.915 366.075 227.745 365.591 227.723 365.06H229.605C229.637 365.432 229.812 365.745 230.131 366.001C230.461 366.245 230.87 366.367 231.359 366.367C231.869 366.367 232.263 366.272 232.539 366.08C232.826 365.878 232.97 365.623 232.97 365.315C232.97 364.985 232.81 364.741 232.491 364.581C232.183 364.422 231.689 364.246 231.008 364.055C230.349 363.874 229.812 363.699 229.398 363.529C228.983 363.359 228.622 363.098 228.313 362.748C228.016 362.397 227.867 361.934 227.867 361.36C227.867 360.892 228.005 360.467 228.281 360.084C228.558 359.691 228.951 359.383 229.461 359.16C229.982 358.936 230.578 358.825 231.247 358.825C232.247 358.825 233.049 359.08 233.655 359.59C234.272 360.09 234.601 360.775 234.644 361.647H232.826C232.794 361.254 232.635 360.94 232.348 360.706C232.061 360.473 231.673 360.356 231.184 360.356C230.705 360.356 230.338 360.446 230.083 360.627C229.828 360.807 229.701 361.047 229.701 361.344C229.701 361.578 229.786 361.775 229.956 361.934C230.126 362.094 230.333 362.221 230.578 362.317C230.822 362.402 231.184 362.514 231.662 362.652C232.3 362.822 232.821 362.997 233.225 363.178C233.639 363.348 233.995 363.603 234.293 363.943C234.591 364.284 234.745 364.735 234.756 365.299C234.756 365.799 234.617 366.245 234.341 366.638C234.065 367.032 233.671 367.34 233.161 367.563C232.661 367.787 232.071 367.898 231.391 367.898ZM244.773 363.146C244.773 363.476 244.751 363.773 244.709 364.039H237.996C238.049 364.741 238.309 365.304 238.777 365.729C239.245 366.155 239.819 366.367 240.499 366.367C241.477 366.367 242.168 365.958 242.572 365.139H244.533C244.268 365.947 243.784 366.612 243.082 367.133C242.391 367.643 241.53 367.898 240.499 367.898C239.659 367.898 238.904 367.712 238.235 367.34C237.576 366.957 237.055 366.426 236.672 365.745C236.3 365.054 236.114 364.257 236.114 363.353C236.114 362.45 236.295 361.658 236.656 360.977C237.028 360.286 237.544 359.755 238.203 359.383C238.873 359.011 239.638 358.825 240.499 358.825C241.328 358.825 242.067 359.005 242.716 359.367C243.364 359.728 243.869 360.239 244.231 360.898C244.592 361.546 244.773 362.296 244.773 363.146ZM242.875 362.572C242.864 361.902 242.625 361.366 242.157 360.962C241.69 360.558 241.11 360.356 240.419 360.356C239.792 360.356 239.255 360.558 238.809 360.962C238.362 361.355 238.097 361.892 238.011 362.572H242.875ZM248.683 360.451V365.315C248.683 365.644 248.757 365.884 248.906 366.032C249.065 366.171 249.331 366.24 249.703 366.24H250.819V367.755H249.384C248.566 367.755 247.938 367.563 247.502 367.181C247.067 366.798 246.849 366.176 246.849 365.315V360.451H245.812V358.968H246.849V356.784H248.683V358.968H250.819V360.451H248.683ZM256.159 357.788V356.13H259.476V367.755H257.642V357.788H256.159ZM263.934 361.679C262.829 361.126 262.276 360.255 262.276 359.064C262.276 358.49 262.419 357.964 262.706 357.485C262.993 357.007 263.424 356.629 263.998 356.353C264.572 356.066 265.274 355.923 266.103 355.923C266.922 355.923 267.618 356.066 268.192 356.353C268.777 356.629 269.212 357.007 269.499 357.485C269.787 357.964 269.93 358.49 269.93 359.064C269.93 359.659 269.776 360.185 269.468 360.643C269.17 361.089 268.771 361.435 268.272 361.679C268.878 361.902 269.356 362.269 269.707 362.779C270.058 363.279 270.233 363.869 270.233 364.549C270.233 365.24 270.058 365.852 269.707 366.383C269.356 366.915 268.867 367.324 268.24 367.611C267.613 367.898 266.9 368.042 266.103 368.042C265.306 368.042 264.593 367.898 263.966 367.611C263.35 367.324 262.866 366.915 262.515 366.383C262.164 365.852 261.989 365.24 261.989 364.549C261.989 363.858 262.164 363.263 262.515 362.763C262.866 362.264 263.339 361.902 263.934 361.679ZM268.192 359.287C268.192 358.692 268.006 358.235 267.634 357.916C267.262 357.597 266.751 357.437 266.103 357.437C265.465 357.437 264.96 357.597 264.588 357.916C264.216 358.235 264.03 358.697 264.03 359.303C264.03 359.835 264.221 360.271 264.604 360.611C264.997 360.94 265.497 361.105 266.103 361.105C266.709 361.105 267.209 360.935 267.602 360.595C267.995 360.255 268.192 359.819 268.192 359.287ZM266.103 362.476C265.401 362.476 264.827 362.652 264.381 363.003C263.945 363.343 263.727 363.837 263.727 364.486C263.727 365.092 263.94 365.586 264.365 365.969C264.79 366.341 265.369 366.527 266.103 366.527C266.826 366.527 267.395 366.335 267.809 365.953C268.234 365.57 268.447 365.081 268.447 364.486C268.447 363.848 268.229 363.353 267.793 363.003C267.368 362.652 266.805 362.476 266.103 362.476ZM273.114 367.866C272.785 367.866 272.508 367.755 272.285 367.531C272.062 367.308 271.95 367.032 271.95 366.702C271.95 366.373 272.062 366.096 272.285 365.873C272.508 365.65 272.785 365.538 273.114 365.538C273.433 365.538 273.704 365.65 273.928 365.873C274.151 366.096 274.263 366.373 274.263 366.702C274.263 367.032 274.151 367.308 273.928 367.531C273.704 367.755 273.433 367.866 273.114 367.866ZM273.114 361.169C272.785 361.169 272.508 361.057 272.285 360.834C272.062 360.611 271.95 360.334 271.95 360.005C271.95 359.675 272.062 359.399 272.285 359.176C272.508 358.952 272.785 358.841 273.114 358.841C273.433 358.841 273.704 358.952 273.928 359.176C274.151 359.399 274.263 359.675 274.263 360.005C274.263 360.334 274.151 360.611 273.928 360.834C273.704 361.057 273.433 361.169 273.114 361.169ZM277.055 365.283C278.076 364.401 278.878 363.678 279.463 363.114C280.058 362.54 280.553 361.945 280.946 361.328C281.339 360.712 281.536 360.095 281.536 359.479C281.536 358.841 281.382 358.341 281.073 357.98C280.776 357.618 280.303 357.437 279.654 357.437C279.027 357.437 278.538 357.639 278.187 358.043C277.847 358.437 277.666 358.968 277.645 359.638H275.891C275.923 358.426 276.284 357.501 276.975 356.863C277.677 356.215 278.565 355.891 279.638 355.891C280.797 355.891 281.701 356.21 282.349 356.847C283.008 357.485 283.338 358.336 283.338 359.399C283.338 360.164 283.141 360.903 282.748 361.615C282.365 362.317 281.903 362.949 281.361 363.513C280.829 364.066 280.149 364.709 279.319 365.442L278.602 366.08H283.657V367.595H275.907V366.272L277.055 365.283ZM285.254 361.791C285.254 359.952 285.562 358.516 286.179 357.485C286.806 356.443 287.88 355.923 289.4 355.923C290.92 355.923 291.988 356.443 292.605 357.485C293.232 358.516 293.546 359.952 293.546 361.791C293.546 363.651 293.232 365.108 292.605 366.16C291.988 367.202 290.92 367.723 289.4 367.723C287.88 367.723 286.806 367.202 286.179 366.16C285.562 365.108 285.254 363.651 285.254 361.791ZM291.76 361.791C291.76 360.93 291.701 360.201 291.584 359.606C291.478 359.011 291.255 358.527 290.915 358.155C290.575 357.772 290.07 357.581 289.4 357.581C288.73 357.581 288.225 357.772 287.885 358.155C287.545 358.527 287.316 359.011 287.199 359.606C287.093 360.201 287.04 360.93 287.04 361.791C287.04 362.684 287.093 363.433 287.199 364.039C287.306 364.645 287.529 365.134 287.869 365.506C288.22 365.878 288.73 366.064 289.4 366.064C290.07 366.064 290.575 365.878 290.915 365.506C291.266 365.134 291.494 364.645 291.6 364.039C291.707 363.433 291.76 362.684 291.76 361.791Z" fill="#C9E8E0"/>
<path d="M101.583 281.395C101.583 280.311 101.833 279.338 102.332 278.477C102.843 277.616 103.528 276.946 104.389 276.468C105.261 275.979 106.213 275.734 107.244 275.734C108.424 275.734 109.471 276.026 110.385 276.611C111.31 277.185 111.98 278.004 112.394 279.067H110.21C109.923 278.482 109.524 278.046 109.014 277.759C108.504 277.472 107.914 277.329 107.244 277.329C106.51 277.329 105.856 277.493 105.282 277.823C104.708 278.153 104.256 278.626 103.927 279.242C103.608 279.859 103.449 280.576 103.449 281.395C103.449 282.214 103.608 282.931 103.927 283.548C104.256 284.164 104.708 284.643 105.282 284.983C105.856 285.312 106.51 285.477 107.244 285.477C107.914 285.477 108.504 285.334 109.014 285.047C109.524 284.76 109.923 284.324 110.21 283.739H112.394C111.98 284.802 111.31 285.621 110.385 286.195C109.471 286.769 108.424 287.056 107.244 287.056C106.202 287.056 105.25 286.817 104.389 286.338C103.528 285.849 102.843 285.174 102.332 284.313C101.833 283.452 101.583 282.479 101.583 281.395ZM113.916 282.527C113.916 281.645 114.097 280.863 114.458 280.183C114.831 279.503 115.33 278.976 115.957 278.604C116.595 278.222 117.297 278.03 118.062 278.03C118.753 278.03 119.354 278.168 119.864 278.445C120.385 278.711 120.8 279.046 121.108 279.45V278.174H122.942V286.96H121.108V285.653C120.8 286.067 120.38 286.413 119.848 286.689C119.317 286.966 118.711 287.104 118.03 287.104C117.276 287.104 116.585 286.912 115.957 286.53C115.33 286.136 114.831 285.594 114.458 284.903C114.097 284.202 113.916 283.41 113.916 282.527ZM121.108 282.559C121.108 281.953 120.98 281.427 120.725 280.98C120.481 280.534 120.157 280.194 119.753 279.96C119.349 279.726 118.913 279.609 118.445 279.609C117.977 279.609 117.541 279.726 117.137 279.96C116.733 280.183 116.404 280.518 116.149 280.964C115.904 281.4 115.782 281.921 115.782 282.527C115.782 283.133 115.904 283.665 116.149 284.122C116.404 284.579 116.733 284.93 117.137 285.174C117.552 285.408 117.988 285.525 118.445 285.525C118.913 285.525 119.349 285.408 119.753 285.174C120.157 284.94 120.481 284.6 120.725 284.154C120.98 283.697 121.108 283.165 121.108 282.559ZM127.147 275.16V286.96H125.33V275.16H127.147ZM130.459 277.01C130.129 277.01 129.853 276.898 129.63 276.675C129.407 276.452 129.295 276.175 129.295 275.846C129.295 275.516 129.407 275.24 129.63 275.016C129.853 274.793 130.129 274.682 130.459 274.682C130.778 274.682 131.049 274.793 131.272 275.016C131.496 275.24 131.607 275.516 131.607 275.846C131.607 276.175 131.496 276.452 131.272 276.675C131.049 276.898 130.778 277.01 130.459 277.01ZM131.352 278.174V286.96H129.534V278.174H131.352ZM137.422 279.657H135.796V286.96H133.962V279.657H132.925V278.174H133.962V277.552C133.962 276.542 134.228 275.808 134.759 275.351C135.301 274.884 136.147 274.65 137.295 274.65V276.165C136.742 276.165 136.354 276.271 136.131 276.484C135.907 276.685 135.796 277.042 135.796 277.552V278.174H137.422V279.657ZM142.845 287.104C142.015 287.104 141.266 286.918 140.596 286.546C139.926 286.163 139.4 285.631 139.017 284.951C138.635 284.26 138.443 283.463 138.443 282.559C138.443 281.666 138.64 280.874 139.033 280.183C139.427 279.492 139.964 278.96 140.644 278.588C141.324 278.216 142.084 278.03 142.924 278.03C143.764 278.03 144.524 278.216 145.205 278.588C145.885 278.96 146.422 279.492 146.815 280.183C147.209 280.874 147.405 281.666 147.405 282.559C147.405 283.452 147.203 284.244 146.799 284.935C146.395 285.626 145.842 286.163 145.141 286.546C144.45 286.918 143.684 287.104 142.845 287.104ZM142.845 285.525C143.312 285.525 143.748 285.413 144.152 285.19C144.567 284.967 144.902 284.632 145.157 284.186C145.412 283.739 145.539 283.197 145.539 282.559C145.539 281.921 145.417 281.384 145.173 280.948C144.928 280.502 144.604 280.167 144.2 279.944C143.796 279.721 143.36 279.609 142.892 279.609C142.425 279.609 141.989 279.721 141.585 279.944C141.191 280.167 140.878 280.502 140.644 280.948C140.41 281.384 140.293 281.921 140.293 282.559C140.293 283.505 140.532 284.239 141.011 284.76C141.5 285.27 142.111 285.525 142.845 285.525ZM151.02 279.45C151.286 279.003 151.637 278.658 152.073 278.413C152.519 278.158 153.045 278.03 153.651 278.03V279.912H153.189C152.477 279.912 151.934 280.093 151.562 280.454C151.201 280.816 151.02 281.443 151.02 282.336V286.96H149.202V278.174H151.02V279.45ZM159.755 278.03C160.446 278.03 161.063 278.174 161.605 278.461C162.158 278.748 162.588 279.173 162.897 279.737C163.205 280.3 163.359 280.98 163.359 281.778V286.96H161.557V282.049C161.557 281.262 161.361 280.661 160.967 280.247C160.574 279.822 160.037 279.609 159.357 279.609C158.676 279.609 158.134 279.822 157.73 280.247C157.337 280.661 157.14 281.262 157.14 282.049V286.96H155.322V278.174H157.14V279.178C157.438 278.817 157.815 278.535 158.272 278.333C158.74 278.131 159.234 278.03 159.755 278.03ZM166.603 277.01C166.273 277.01 165.997 276.898 165.774 276.675C165.55 276.452 165.439 276.175 165.439 275.846C165.439 275.516 165.55 275.24 165.774 275.016C165.997 274.793 166.273 274.682 166.603 274.682C166.922 274.682 167.193 274.793 167.416 275.016C167.639 275.24 167.751 275.516 167.751 275.846C167.751 276.175 167.639 276.452 167.416 276.675C167.193 276.898 166.922 277.01 166.603 277.01ZM167.496 278.174V286.96H165.678V278.174H167.496ZM169.277 282.527C169.277 281.645 169.457 280.863 169.819 280.183C170.191 279.503 170.69 278.976 171.318 278.604C171.956 278.222 172.657 278.03 173.423 278.03C174.114 278.03 174.714 278.168 175.225 278.445C175.745 278.711 176.16 279.046 176.468 279.45V278.174H178.302V286.96H176.468V285.653C176.16 286.067 175.74 286.413 175.209 286.689C174.677 286.966 174.071 287.104 173.391 287.104C172.636 287.104 171.945 286.912 171.318 286.53C170.69 286.136 170.191 285.594 169.819 284.903C169.457 284.202 169.277 283.41 169.277 282.527ZM176.468 282.559C176.468 281.953 176.341 281.427 176.086 280.98C175.841 280.534 175.517 280.194 175.113 279.96C174.709 279.726 174.273 279.609 173.805 279.609C173.338 279.609 172.902 279.726 172.498 279.96C172.094 280.183 171.764 280.518 171.509 280.964C171.265 281.4 171.142 281.921 171.142 282.527C171.142 283.133 171.265 283.665 171.509 284.122C171.764 284.579 172.094 284.93 172.498 285.174C172.912 285.408 173.348 285.525 173.805 285.525C174.273 285.525 174.709 285.408 175.113 285.174C175.517 284.94 175.841 284.6 176.086 284.154C176.341 283.697 176.468 283.165 176.468 282.559ZM182.683 284.776L180.754 289.177H179.574L180.706 284.776H182.683ZM190.232 285.493H193.979V286.96H188.414V275.878H190.232V285.493ZM199.311 287.104C198.481 287.104 197.732 286.918 197.062 286.546C196.392 286.163 195.866 285.631 195.483 284.951C195.101 284.26 194.909 283.463 194.909 282.559C194.909 281.666 195.106 280.874 195.499 280.183C195.893 279.492 196.43 278.96 197.11 278.588C197.79 278.216 198.55 278.03 199.39 278.03C200.23 278.03 200.99 278.216 201.671 278.588C202.351 278.96 202.888 279.492 203.281 280.183C203.674 280.874 203.871 281.666 203.871 282.559C203.871 283.452 203.669 284.244 203.265 284.935C202.861 285.626 202.308 286.163 201.607 286.546C200.916 286.918 200.15 287.104 199.311 287.104ZM199.311 285.525C199.778 285.525 200.214 285.413 200.618 285.19C201.033 284.967 201.368 284.632 201.623 284.186C201.878 283.739 202.005 283.197 202.005 282.559C202.005 281.921 201.883 281.384 201.639 280.948C201.394 280.502 201.07 280.167 200.666 279.944C200.262 279.721 199.826 279.609 199.358 279.609C198.891 279.609 198.455 279.721 198.051 279.944C197.657 280.167 197.344 280.502 197.11 280.948C196.876 281.384 196.759 281.921 196.759 282.559C196.759 283.505 196.998 284.239 197.477 284.76C197.966 285.27 198.577 285.525 199.311 285.525ZM208.857 287.104C208.166 287.104 207.545 286.981 206.992 286.737C206.45 286.482 206.019 286.142 205.7 285.716C205.381 285.281 205.211 284.797 205.19 284.265H207.071C207.103 284.637 207.279 284.951 207.598 285.206C207.927 285.451 208.337 285.573 208.826 285.573C209.336 285.573 209.729 285.477 210.006 285.286C210.293 285.084 210.436 284.829 210.436 284.52C210.436 284.191 210.277 283.946 209.958 283.787C209.649 283.627 209.155 283.452 208.475 283.261C207.816 283.08 207.279 282.905 206.864 282.734C206.45 282.564 206.088 282.304 205.78 281.953C205.482 281.602 205.333 281.14 205.333 280.566C205.333 280.098 205.472 279.673 205.748 279.29C206.024 278.897 206.418 278.588 206.928 278.365C207.449 278.142 208.044 278.03 208.714 278.03C209.713 278.03 210.516 278.285 211.122 278.796C211.738 279.295 212.068 279.981 212.11 280.853H210.293C210.261 280.459 210.101 280.146 209.814 279.912C209.527 279.678 209.139 279.561 208.65 279.561C208.172 279.561 207.805 279.652 207.55 279.832C207.295 280.013 207.167 280.252 207.167 280.55C207.167 280.784 207.252 280.98 207.422 281.14C207.592 281.299 207.8 281.427 208.044 281.523C208.289 281.608 208.65 281.719 209.129 281.857C209.766 282.027 210.287 282.203 210.691 282.384C211.106 282.554 211.462 282.809 211.76 283.149C212.057 283.489 212.211 283.941 212.222 284.504C212.222 285.004 212.084 285.451 211.808 285.844C211.531 286.237 211.138 286.546 210.627 286.769C210.128 286.992 209.538 287.104 208.857 287.104ZM225.01 284.696H220.37L219.572 286.96H217.675L221.645 275.862H223.75L227.721 286.96H225.807L225.01 284.696ZM224.5 283.213L222.698 278.062L220.88 283.213H224.5ZM233.881 278.03C234.572 278.03 235.188 278.174 235.73 278.461C236.283 278.748 236.714 279.173 237.022 279.737C237.33 280.3 237.484 280.98 237.484 281.778V286.96H235.682V282.049C235.682 281.262 235.486 280.661 235.092 280.247C234.699 279.822 234.162 279.609 233.482 279.609C232.801 279.609 232.259 279.822 231.855 280.247C231.462 280.661 231.265 281.262 231.265 282.049V286.96H229.447V278.174H231.265V279.178C231.563 278.817 231.94 278.535 232.398 278.333C232.865 278.131 233.36 278.03 233.881 278.03ZM243.343 278.03C244.024 278.03 244.624 278.168 245.145 278.445C245.677 278.711 246.091 279.046 246.389 279.45V278.174H248.223V287.104C248.223 287.912 248.053 288.629 247.713 289.256C247.372 289.894 246.878 290.394 246.23 290.755C245.592 291.117 244.826 291.298 243.933 291.298C242.743 291.298 241.754 291.016 240.967 290.452C240.181 289.9 239.734 289.145 239.628 288.188H241.43C241.568 288.645 241.86 289.012 242.307 289.288C242.764 289.575 243.306 289.719 243.933 289.719C244.667 289.719 245.257 289.496 245.703 289.049C246.16 288.603 246.389 287.954 246.389 287.104V285.637C246.081 286.051 245.661 286.402 245.129 286.689C244.608 286.966 244.013 287.104 243.343 287.104C242.578 287.104 241.876 286.912 241.238 286.53C240.611 286.136 240.111 285.594 239.739 284.903C239.378 284.202 239.197 283.41 239.197 282.527C239.197 281.645 239.378 280.863 239.739 280.183C240.111 279.503 240.611 278.976 241.238 278.604C241.876 278.222 242.578 278.03 243.343 278.03ZM246.389 282.559C246.389 281.953 246.261 281.427 246.006 280.98C245.762 280.534 245.438 280.194 245.034 279.96C244.63 279.726 244.194 279.609 243.726 279.609C243.258 279.609 242.822 279.726 242.418 279.96C242.014 280.183 241.685 280.518 241.43 280.964C241.185 281.4 241.063 281.921 241.063 282.527C241.063 283.133 241.185 283.665 241.43 284.122C241.685 284.579 242.014 284.93 242.418 285.174C242.833 285.408 243.269 285.525 243.726 285.525C244.194 285.525 244.63 285.408 245.034 285.174C245.438 284.94 245.762 284.6 246.006 284.154C246.261 283.697 246.389 283.165 246.389 282.559ZM258.663 282.352C258.663 282.681 258.642 282.979 258.6 283.245H251.886C251.939 283.946 252.2 284.51 252.668 284.935C253.135 285.36 253.709 285.573 254.39 285.573C255.368 285.573 256.059 285.164 256.463 284.345H258.424C258.158 285.153 257.675 285.817 256.973 286.338C256.282 286.849 255.421 287.104 254.39 287.104C253.55 287.104 252.795 286.918 252.125 286.546C251.466 286.163 250.945 285.631 250.563 284.951C250.191 284.26 250.005 283.463 250.005 282.559C250.005 281.655 250.185 280.863 250.547 280.183C250.919 279.492 251.434 278.96 252.094 278.588C252.763 278.216 253.529 278.03 254.39 278.03C255.219 278.03 255.958 278.211 256.606 278.572C257.255 278.934 257.76 279.444 258.121 280.103C258.483 280.752 258.663 281.501 258.663 282.352ZM256.766 281.778C256.755 281.108 256.516 280.571 256.048 280.167C255.58 279.763 255.001 279.561 254.31 279.561C253.683 279.561 253.146 279.763 252.699 280.167C252.253 280.56 251.987 281.097 251.902 281.778H256.766ZM262.27 275.16V286.96H260.452V275.16H262.27ZM272.71 282.352C272.71 282.681 272.689 282.979 272.646 283.245H265.933C265.986 283.946 266.246 284.51 266.714 284.935C267.182 285.36 267.756 285.573 268.436 285.573C269.414 285.573 270.105 285.164 270.509 284.345H272.471C272.205 285.153 271.721 285.817 271.019 286.338C270.328 286.849 269.467 287.104 268.436 287.104C267.596 287.104 266.842 286.918 266.172 286.546C265.513 286.163 264.992 285.631 264.609 284.951C264.237 284.26 264.051 283.463 264.051 282.559C264.051 281.655 264.232 280.863 264.593 280.183C264.965 279.492 265.481 278.96 266.14 278.588C266.81 278.216 267.575 278.03 268.436 278.03C269.265 278.03 270.004 278.211 270.653 278.572C271.301 278.934 271.806 279.444 272.168 280.103C272.529 280.752 272.71 281.501 272.71 282.352ZM270.812 281.778C270.802 281.108 270.562 280.571 270.095 280.167C269.627 279.763 269.047 279.561 268.356 279.561C267.729 279.561 267.192 279.763 266.746 280.167C266.299 280.56 266.034 281.097 265.949 281.778H270.812ZM277.688 287.104C276.997 287.104 276.375 286.981 275.822 286.737C275.28 286.482 274.85 286.142 274.531 285.716C274.212 285.281 274.042 284.797 274.02 284.265H275.902C275.934 284.637 276.109 284.951 276.428 285.206C276.758 285.451 277.167 285.573 277.656 285.573C278.166 285.573 278.56 285.477 278.836 285.286C279.123 285.084 279.267 284.829 279.267 284.52C279.267 284.191 279.107 283.946 278.788 283.787C278.48 283.627 277.986 283.452 277.305 283.261C276.646 283.08 276.109 282.905 275.695 282.734C275.28 282.564 274.919 282.304 274.61 281.953C274.313 281.602 274.164 281.14 274.164 280.566C274.164 280.098 274.302 279.673 274.578 279.29C274.855 278.897 275.248 278.588 275.759 278.365C276.279 278.142 276.875 278.03 277.544 278.03C278.544 278.03 279.346 278.285 279.952 278.796C280.569 279.295 280.899 279.981 280.941 280.853H279.123C279.091 280.459 278.932 280.146 278.645 279.912C278.358 279.678 277.97 279.561 277.481 279.561C277.002 279.561 276.636 279.652 276.38 279.832C276.125 280.013 275.998 280.252 275.998 280.55C275.998 280.784 276.083 280.98 276.253 281.14C276.423 281.299 276.63 281.427 276.875 281.523C277.119 281.608 277.481 281.719 277.959 281.857C278.597 282.027 279.118 282.203 279.522 282.384C279.936 282.554 280.293 282.809 280.59 283.149C280.888 283.489 281.042 283.941 281.053 284.504C281.053 285.004 280.914 285.451 280.638 285.844C280.362 286.237 279.968 286.546 279.458 286.769C278.958 286.992 278.368 287.104 277.688 287.104Z" fill="#C9E8E0"/>
<path d="M169.647 244.122L166.372 238.338H164.969V244.122H161.993V229.281H167.563C168.711 229.281 169.689 229.486 170.497 229.898C171.305 230.294 171.908 230.84 172.304 231.535C172.716 232.215 172.921 232.98 172.921 233.831C172.921 234.809 172.638 235.695 172.071 236.489C171.504 237.268 170.66 237.807 169.54 238.105L173.091 244.122H169.647ZM164.969 236.106H167.457C168.265 236.106 168.867 235.915 169.264 235.532C169.661 235.135 169.859 234.589 169.859 233.895C169.859 233.214 169.661 232.69 169.264 232.321C168.867 231.939 168.265 231.747 167.457 231.747H164.969V236.106ZM174.848 238.19C174.848 236.999 175.082 235.943 175.55 235.022C176.031 234.1 176.676 233.392 177.484 232.895C178.306 232.399 179.221 232.151 180.227 232.151C181.106 232.151 181.871 232.328 182.523 232.683C183.19 233.037 183.721 233.484 184.118 234.022V232.343H187.116V244.122H184.118V242.399C183.735 242.952 183.204 243.413 182.523 243.781C181.857 244.136 181.085 244.313 180.206 244.313C179.214 244.313 178.306 244.058 177.484 243.548C176.676 243.037 176.031 242.321 175.55 241.4C175.082 240.465 174.848 239.394 174.848 238.19ZM184.118 238.232C184.118 237.509 183.976 236.893 183.693 236.382C183.409 235.858 183.027 235.461 182.545 235.192C182.063 234.908 181.545 234.766 180.993 234.766C180.44 234.766 179.929 234.901 179.462 235.17C178.994 235.44 178.611 235.837 178.314 236.361C178.03 236.871 177.888 237.481 177.888 238.19C177.888 238.898 178.03 239.522 178.314 240.061C178.611 240.585 178.994 240.989 179.462 241.273C179.944 241.556 180.454 241.698 180.993 241.698C181.545 241.698 182.063 241.563 182.545 241.294C183.027 241.01 183.409 240.613 183.693 240.103C183.976 239.579 184.118 238.955 184.118 238.232ZM191.533 230.939C191.008 230.939 190.569 230.776 190.214 230.45C189.874 230.11 189.704 229.692 189.704 229.196C189.704 228.7 189.874 228.289 190.214 227.963C190.569 227.623 191.008 227.452 191.533 227.452C192.057 227.452 192.489 227.623 192.83 227.963C193.184 228.289 193.361 228.7 193.361 229.196C193.361 229.692 193.184 230.11 192.83 230.45C192.489 230.776 192.057 230.939 191.533 230.939ZM193 232.343V244.122H190.023V232.343H193ZM202.468 232.173C203.871 232.173 205.005 232.619 205.87 233.512C206.735 234.391 207.167 235.624 207.167 237.212V244.122H204.19V237.616C204.19 236.68 203.956 235.964 203.489 235.468C203.021 234.958 202.383 234.703 201.575 234.703C200.753 234.703 200.101 234.958 199.619 235.468C199.151 235.964 198.917 236.68 198.917 237.616V244.122H195.941V232.343H198.917V233.81C199.314 233.299 199.817 232.903 200.427 232.619C201.051 232.321 201.731 232.173 202.468 232.173ZM221.266 232.343L213.973 249.692H210.805L213.357 243.824L208.637 232.343H211.975L215.015 240.571L218.098 232.343H221.266Z" fill="#C9E8E0"/>
<rect x="184.976" y="357.196" width="1.06308" height="10.6308" rx="0.531542" fill="#C9E8E0"/>
<path d="M154.008 131.76C151.127 128.885 147.278 126.878 142.81 125.918C142.391 125.828 141.999 125.641 141.665 125.372C141.331 125.104 141.065 124.761 140.887 124.371C139.244 120.783 136.757 117.646 133.637 115.228C129.646 112.174 124.791 110.561 119.597 110.561C113.678 110.542 107.959 112.703 103.53 116.63C99.3718 120.335 96.5005 125.452 95.2083 131.379C95.1005 131.88 94.855 132.342 94.4992 132.712C94.1434 133.081 93.6915 133.345 93.1944 133.472C88.8985 134.554 87.0582 135.626 84.7384 137.692C81.4495 140.62 79.7311 144.608 79.7311 149.189C79.7311 154.439 81.6608 158.75 85.3106 161.658C88.5085 164.203 92.8765 165.548 97.9456 165.548H138.155C143.86 165.548 149.171 163.579 153.105 160.001C157.201 156.281 159.462 151.122 159.462 145.478C159.462 140.067 157.572 135.324 154.008 131.76Z" fill="#C9E8E0"/>
<path d="M94.853 184.793C94.3554 184.793 93.8672 184.658 93.4405 184.402C93.0138 184.146 92.6645 183.779 92.43 183.34C92.1954 182.901 92.0843 182.407 92.1085 181.91C92.1328 181.413 92.2914 180.932 92.5676 180.518L98.0663 172.27C98.2667 171.97 98.5242 171.712 98.8243 171.511C99.1244 171.31 99.4611 171.171 99.8151 171.1C100.169 171.029 100.534 171.029 100.888 171.099C101.242 171.169 101.579 171.309 101.879 171.509C102.18 171.709 102.438 171.967 102.638 172.267C102.839 172.567 102.979 172.904 103.05 173.258C103.12 173.612 103.121 173.976 103.05 174.331C102.98 174.685 102.841 175.022 102.641 175.322L97.1418 183.57C96.8905 183.947 96.5501 184.255 96.1508 184.469C95.7515 184.682 95.3057 184.794 94.853 184.793Z" fill="#C9E8E0"/>
<path d="M103.101 193.042C102.604 193.041 102.116 192.905 101.689 192.649C101.263 192.393 100.914 192.026 100.679 191.588C100.445 191.149 100.334 190.655 100.358 190.158C100.383 189.661 100.541 189.18 100.817 188.766L111.815 172.27C112.015 171.97 112.273 171.712 112.573 171.511C112.873 171.31 113.21 171.171 113.564 171.1C113.918 171.029 114.282 171.029 114.636 171.099C114.991 171.169 115.327 171.309 115.628 171.509C115.928 171.709 116.186 171.967 116.387 172.267C116.588 172.567 116.727 172.904 116.798 173.258C116.869 173.612 116.869 173.976 116.799 174.331C116.729 174.685 116.589 175.022 116.389 175.322L105.392 191.818C105.14 192.195 104.8 192.504 104.4 192.717C104 192.931 103.554 193.042 103.101 193.042Z" fill="#C9E8E0"/>
<path d="M122.346 184.793C121.849 184.793 121.361 184.658 120.934 184.402C120.507 184.146 120.158 183.779 119.923 183.34C119.689 182.901 119.578 182.407 119.602 181.91C119.626 181.413 119.785 180.932 120.061 180.518L125.56 172.27C125.964 171.664 126.593 171.243 127.308 171.1C128.024 170.957 128.766 171.104 129.373 171.509C129.979 171.914 130.4 172.543 130.543 173.258C130.686 173.973 130.539 174.715 130.134 175.322L124.635 183.57C124.384 183.947 124.043 184.255 123.644 184.469C123.245 184.682 122.799 184.794 122.346 184.793Z" fill="#C9E8E0"/>
<path d="M130.595 193.042C130.097 193.041 129.609 192.906 129.182 192.65C128.755 192.394 128.406 192.027 128.171 191.588C127.937 191.15 127.826 190.655 127.85 190.158C127.874 189.661 128.033 189.18 128.309 188.766L139.307 172.27C139.711 171.664 140.34 171.243 141.055 171.1C141.77 170.957 142.513 171.104 143.12 171.509C143.726 171.914 144.147 172.543 144.29 173.258C144.433 173.973 144.285 174.715 143.881 175.322L132.883 191.818C132.632 192.195 132.292 192.503 131.892 192.717C131.493 192.93 131.047 193.042 130.595 193.042Z" fill="#C9E8E0"/>
<path d="M146.812 37.1061V39.5777H141.895V55.5771H138.865V39.5777H133.922V37.1061H146.812ZM156.232 55.8163C154.85 55.8163 153.601 55.5063 152.485 54.8861C151.369 54.2483 150.491 53.3624 149.854 52.2284C149.216 51.0768 148.897 49.7479 148.897 48.2419C148.897 46.7535 149.225 45.4336 149.88 44.2819C150.536 43.1302 151.431 42.2443 152.564 41.6242C153.698 41.004 154.965 40.694 156.365 40.694C157.765 40.694 159.032 41.004 160.166 41.6242C161.299 42.2443 162.194 43.1302 162.85 44.2819C163.505 45.4336 163.833 46.7535 163.833 48.2419C163.833 49.7302 163.497 51.0502 162.823 52.2019C162.15 53.3535 161.229 54.2483 160.059 54.8861C158.908 55.5063 157.632 55.8163 156.232 55.8163ZM156.232 53.1852C157.012 53.1852 157.738 52.9992 158.411 52.6271C159.102 52.255 159.661 51.6969 160.086 50.9527C160.511 50.2086 160.724 49.305 160.724 48.2419C160.724 47.1788 160.52 46.284 160.112 45.5576C159.705 44.8134 159.164 44.2553 158.491 43.8832C157.818 43.5111 157.091 43.3251 156.312 43.3251C155.532 43.3251 154.806 43.5111 154.133 43.8832C153.477 44.2553 152.954 44.8134 152.564 45.5576C152.175 46.284 151.98 47.1788 151.98 48.2419C151.98 49.8188 152.378 51.0413 153.176 51.9095C153.991 52.76 155.01 53.1852 156.232 53.1852ZM165.818 48.1887C165.818 46.7181 166.12 45.4158 166.722 44.2819C167.342 43.1479 168.175 42.2709 169.22 41.6507C170.283 41.0129 171.462 40.694 172.755 40.694C173.712 40.694 174.651 40.9066 175.572 41.3318C176.511 41.7393 177.255 42.2886 177.805 42.9796V35.9101H180.861V55.5771H177.805V53.3712C177.309 54.08 176.618 54.6647 175.732 55.1253C174.863 55.586 173.862 55.8163 172.728 55.8163C171.453 55.8163 170.283 55.4974 169.22 54.8596C168.175 54.204 167.342 53.3004 166.722 52.1487C166.12 50.9793 165.818 49.6593 165.818 48.1887ZM177.805 48.2419C177.805 47.2319 177.592 46.3549 177.167 45.6107C176.759 44.8666 176.219 44.2996 175.546 43.9098C174.872 43.52 174.146 43.3251 173.366 43.3251C172.587 43.3251 171.86 43.52 171.187 43.9098C170.514 44.2819 169.964 44.84 169.539 45.5842C169.132 46.3106 168.928 47.1788 168.928 48.1887C168.928 49.1986 169.132 50.0845 169.539 50.8464C169.964 51.6083 170.514 52.193 171.187 52.6005C171.878 52.9903 172.604 53.1852 173.366 53.1852C174.146 53.1852 174.872 52.9903 175.546 52.6005C176.219 52.2107 176.759 51.6437 177.167 50.8996C177.592 50.1377 177.805 49.2518 177.805 48.2419ZM183.831 48.1887C183.831 46.7181 184.132 45.4158 184.734 44.2819C185.354 43.1479 186.187 42.2709 187.232 41.6507C188.296 41.0129 189.465 40.694 190.741 40.694C191.892 40.694 192.893 40.9243 193.744 41.385C194.612 41.8279 195.303 42.386 195.817 43.0593V40.9332H198.873V55.5771H195.817V53.3978C195.303 54.0888 194.603 54.6647 193.717 55.1253C192.831 55.586 191.821 55.8163 190.687 55.8163C189.429 55.8163 188.278 55.4974 187.232 54.8596C186.187 54.204 185.354 53.3004 184.734 52.1487C184.132 50.9793 183.831 49.6593 183.831 48.1887ZM195.817 48.2419C195.817 47.2319 195.604 46.3549 195.179 45.6107C194.771 44.8666 194.231 44.2996 193.558 43.9098C192.884 43.52 192.158 43.3251 191.378 43.3251C190.599 43.3251 189.872 43.52 189.199 43.9098C188.526 44.2819 187.977 44.84 187.551 45.5842C187.144 46.3106 186.94 47.1788 186.94 48.1887C186.94 49.1986 187.144 50.0845 187.551 50.8464C187.977 51.6083 188.526 52.193 189.199 52.6005C189.89 52.9903 190.617 53.1852 191.378 53.1852C192.158 53.1852 192.884 52.9903 193.558 52.6005C194.231 52.2107 194.771 51.6437 195.179 50.8996C195.604 50.1377 195.817 49.2518 195.817 48.2419ZM216.035 40.9332L207.052 62.4606H203.916L206.892 55.338L201.125 40.9332H204.5L208.62 52.0955L212.899 40.9332H216.035Z" fill="#C9E8E0"/>
<rect x="249.825" y="45.4016" width="12.0376" height="2.56707" rx="1.28354" transform="rotate(135 249.825 45.4016)" fill="#C9E8E0"/>
<rect width="12.0376" height="2.56707" rx="1.28354" transform="matrix(0.707107 0.707107 0.707107 -0.707107 232.815 45.4016)" fill="#C9E8E0"/>
</svg>
